<svg width="22" height="19" viewBox="0 0 22 19" fill="none" xmlns="http://www.w3.org/2000/svg">
<path d="M20 16.189H22V18.189H0V16.189H2V1.18896C2 0.923748 2.10536 0.669394 2.29289 0.481858C2.48043 0.294322 2.73478 0.188965 3 0.188965H13C13.2652 0.188965 13.5196 0.294322 13.7071 0.481858C13.8946 0.669394 14 0.923748 14 1.18896V16.189H18V8.18896H16V6.18896H19C19.2652 6.18896 19.5196 6.29432 19.7071 6.48186C19.8946 6.66939 20 6.92375 20 7.18896V16.189ZM4 2.18896V16.189H12V2.18896H4ZM6 8.18896H10V10.189H6V8.18896ZM6 4.18896H10V6.18896H6V4.18896Z" fill="#7D7CAC"/>
</svg>
