<svg width="297" height="70" viewBox="0 0 297 70" fill="none" xmlns="http://www.w3.org/2000/svg">
<g clip-path="url(#clip0_4_71)">
<path d="M15.159 17.2941L8.96339 40.4165L27.2044 45.3041C29.0028 45.786 30.4872 43.8432 29.5468 42.2144L15.159 17.2941Z" fill="#D85E00"/>
<path d="M38.2815 23.4897L8.96339 40.4165C4.30853 32.354 7.09656 21.9489 15.159 17.2941L37.1476 4.59896L44.4771 0.367264C49.132 8.42973 46.3439 18.8348 38.2815 23.4897Z" fill="#FFBA00"/>
<path d="M55.2083 52.8077L61.4039 29.6853L43.1629 24.7976C41.3645 24.3157 39.8801 26.2586 40.8205 27.8874L55.2083 52.8077Z" fill="#2927A6"/>
<path d="M32.0858 46.6121L61.4038 29.6853C66.0587 37.7478 63.2707 48.1529 55.2082 52.8077L25.8902 69.7345C21.2353 61.6721 24.0233 51.267 32.0858 46.6121Z" fill="#0066FF"/>
</g>
<path d="M92.1751 52.9901C90.3116 52.9901 88.5146 52.7405 86.7842 52.2413C85.0538 51.7755 83.6395 51.0933 82.5414 50.1948C81.4432 49.263 80.8942 48.1982 80.8942 47.0002V41.1601H82.2918C82.791 44.5544 83.8392 47.0002 85.4365 48.4977C87.0338 49.9951 89.2633 50.7439 92.1252 50.7439C94.0552 50.7439 95.586 50.3279 96.7174 49.496C97.8488 48.6641 98.4145 47.4661 98.4145 45.9021C98.4145 44.571 97.9985 43.4396 97.1666 42.5078C96.3347 41.5761 95.0369 40.5611 93.2732 39.463L87.1336 35.7692C84.904 34.4714 83.3067 33.1237 82.3417 31.7261C81.41 30.3284 80.9441 28.6979 80.9441 26.8344C80.9441 24.2055 81.9424 22.1257 83.939 20.5949C85.9689 19.0642 88.6976 18.2988 92.1252 18.2988C93.9887 18.2988 95.7856 18.5484 97.516 19.0475C99.2464 19.5134 100.661 20.2122 101.759 21.144C102.857 22.0425 103.406 23.0907 103.406 24.2887V30.1288H102.008C101.443 26.7345 100.394 24.2887 98.8637 22.7912C97.333 21.2937 95.2698 20.545 92.6742 20.545C90.8773 20.545 89.4464 20.9776 88.3815 21.8428C87.3499 22.708 86.8341 23.8893 86.8341 25.3868C86.8341 26.6846 87.2334 27.7661 88.0321 28.6313C88.864 29.4632 90.1951 30.4116 92.0253 31.4765L98.1649 35.1203C100.494 36.4847 102.158 37.8158 103.156 39.1136C104.188 40.3781 104.704 41.9088 104.704 43.7058C104.704 46.6009 103.606 48.8804 101.409 50.5442C99.2464 52.1748 96.1683 52.9901 92.1751 52.9901Z" fill="#151F4C"/>
<path d="M128.241 52.6407C126.777 52.6407 125.429 52.3412 124.198 51.7422C123 51.1099 121.869 50.0783 120.804 48.6474L116.012 42.3581V52.1415H109.523V25.6863C109.523 23.9892 109.29 22.7413 108.824 21.9426C108.358 21.1107 107.427 20.6947 106.029 20.6947H105.53V19.1973H111.52C112.718 19.1973 113.633 19.3969 114.265 19.7963C114.897 20.1956 115.347 20.8611 115.613 21.7929C115.879 22.6914 116.012 23.9892 116.012 25.6863V39.9122L122.052 32.5247C123.183 31.1604 124.248 30.1787 125.246 29.5797C126.245 28.9807 127.576 28.6812 129.24 28.6812H130.238V29.979C129.24 29.979 128.341 30.1787 127.543 30.578C126.744 30.9773 125.979 31.6096 125.246 32.4748L120.405 38.3648L127.043 47.15C128.641 49.313 130.188 50.5775 131.686 50.9435V52.1415C131.419 52.2746 130.92 52.3911 130.188 52.4909C129.489 52.5907 128.84 52.6407 128.241 52.6407Z" fill="#151F4C"/>
<path d="M138.917 25.9858C137.719 25.9858 136.788 25.6197 136.122 24.8876C135.49 24.1556 135.174 23.2571 135.174 22.1922C135.174 21.327 135.423 20.6448 135.922 20.1457C136.455 19.6465 137.12 19.3969 137.919 19.3969C139.117 19.3969 140.032 19.763 140.664 20.4951C141.33 21.2272 141.663 22.1257 141.663 23.1905C141.663 24.0557 141.397 24.7379 140.864 25.2371C140.365 25.7362 139.716 25.9858 138.917 25.9858ZM135.673 35.1702C135.673 33.4731 135.44 32.2252 134.974 31.4266C134.508 30.5947 133.576 30.1787 132.179 30.1787H131.68V28.6812H137.67C138.867 28.6812 139.783 28.8809 140.415 29.2802C141.047 29.6795 141.496 30.3451 141.763 31.2768C142.029 32.1753 142.162 33.4731 142.162 35.1702V52.1415H135.673V35.1702Z" fill="#151F4C"/>
<path d="M149.109 25.6863C149.109 23.9892 148.876 22.7413 148.41 21.9426C147.944 21.1107 147.013 20.6947 145.615 20.6947H145.116V19.1973H151.106C152.304 19.1973 153.219 19.3969 153.851 19.7963C154.483 20.1956 154.933 20.8611 155.199 21.7929C155.465 22.6914 155.598 23.9892 155.598 25.6863V52.1415H149.109V25.6863Z" fill="#151F4C"/>
<path d="M161.978 25.6863C161.978 23.9892 161.745 22.7413 161.279 21.9426C160.813 21.1107 159.882 20.6947 158.484 20.6947H157.985V19.1973H163.975C165.173 19.1973 166.088 19.3969 166.72 19.7963C167.352 20.1956 167.801 20.8611 168.068 21.7929C168.334 22.6914 168.467 23.9892 168.467 25.6863V52.1415H161.978V25.6863Z" fill="#151F4C"/>
<path d="M189.971 53.1398C186.544 53.1398 183.582 52.4077 181.086 50.9435C178.624 49.4461 176.744 47.4162 175.446 44.8538C174.148 42.2915 173.499 39.3964 173.499 36.1685C173.499 32.8408 174.215 29.8126 175.645 27.0839C177.076 24.3219 179.04 22.1589 181.535 20.5949C184.065 18.9976 186.876 18.199 189.971 18.199C192.9 18.199 195.345 18.5817 197.309 19.347C199.272 20.0791 200.77 21.0442 201.801 22.2421C202.4 23.0075 202.766 23.9559 202.899 25.0873C203.032 26.2187 203.099 27.7994 203.099 29.8293H201.602C200.969 26.7678 199.805 24.4384 198.107 22.8411C196.41 21.2438 194.197 20.4452 191.469 20.4452C188.074 20.4452 185.396 21.6431 183.432 24.0391C181.469 26.435 180.487 30.4782 180.487 36.1685C180.487 40.3947 181.386 43.9055 183.183 46.7007C184.98 49.496 187.742 50.8936 191.469 50.8936C193.798 50.8936 195.928 50.278 197.858 49.0467C199.821 47.8155 201.402 46.0518 202.6 43.7557L204.347 45.1034C202.75 47.8987 200.82 49.9452 198.557 51.243C196.294 52.5076 193.432 53.1398 189.971 53.1398Z" fill="#151F4C"/>
<path d="M208.525 25.6863C208.525 23.9892 208.292 22.7413 207.827 21.9426C207.361 21.1107 206.429 20.6947 205.031 20.6947H204.532V19.1973H210.522C211.72 19.1973 212.635 19.3969 213.267 19.7963C213.9 20.1956 214.349 20.8611 214.615 21.7929C214.881 22.6914 215.014 23.9892 215.014 25.6863V30.0789C215.314 29.8459 215.83 29.5298 216.562 29.1305C217.893 28.4982 219.207 28.1821 220.505 28.1821C223.201 28.1821 225.447 28.8809 227.244 30.2785C229.074 31.6429 229.989 33.9889 229.989 37.3166V52.1415H223.5V37.5662C223.5 35.1702 223.067 33.4232 222.202 32.3251C221.37 31.2269 220.305 30.6778 219.008 30.6778C218.109 30.6778 217.161 30.9773 216.162 31.5763C215.763 31.8093 215.38 32.0921 215.014 32.4249V52.1415H208.525V25.6863Z" fill="#151F4C"/>
<path d="M242.615 52.6407C239.919 52.6407 237.823 52.0417 236.326 50.8437C234.861 49.6125 234.129 47.9652 234.129 45.9021C234.129 44.2382 234.512 42.8572 235.277 41.7591C236.076 40.6609 237.457 39.829 239.42 39.2633C241.384 38.6976 244.112 38.4147 247.606 38.4147H248.355C248.355 35.5196 247.956 33.4731 247.157 32.2751C246.359 31.0439 245.177 30.4283 243.613 30.4283C242.315 30.4283 241.251 30.7444 240.419 31.3767C239.587 32.0089 238.988 33.1903 238.622 34.9207H235.876C235.876 33.7892 235.943 32.8242 236.076 32.0256C236.242 31.2269 236.592 30.5281 237.124 29.9291C238.156 28.7644 240.652 28.1821 244.612 28.1821C247.939 28.1821 250.468 29.0639 252.199 30.8276C253.962 32.558 254.844 35.1702 254.844 38.6643V52.1415H250.601L248.854 49.8953H248.605C248.305 50.3612 247.839 50.8271 247.207 51.2929C246.076 52.1914 244.545 52.6407 242.615 52.6407ZM244.112 50.1449C244.811 50.1449 245.41 50.0118 245.909 49.7456C246.408 49.4461 246.891 49.0467 247.357 48.5476C247.789 48.0817 248.122 47.5326 248.355 46.9004V40.6609H247.606C245.244 40.6609 243.53 41.0935 242.465 41.9587C241.4 42.7907 240.868 44.1051 240.868 45.9021C240.868 47.2664 241.151 48.3146 241.716 49.0467C242.282 49.7788 243.081 50.1449 244.112 50.1449Z" fill="#151F4C"/>
<path d="M264.632 25.9858C263.434 25.9858 262.503 25.6197 261.837 24.8876C261.205 24.1556 260.889 23.2571 260.889 22.1922C260.889 21.327 261.138 20.6448 261.637 20.1457C262.17 19.6465 262.835 19.3969 263.634 19.3969C264.832 19.3969 265.747 19.763 266.379 20.4951C267.045 21.2272 267.378 22.1257 267.378 23.1905C267.378 24.0557 267.111 24.7379 266.579 25.2371C266.08 25.7362 265.431 25.9858 264.632 25.9858ZM261.388 35.1702C261.388 33.4731 261.155 32.2252 260.689 31.4266C260.223 30.5947 259.291 30.1787 257.894 30.1787H257.395V28.6812H263.384C264.582 28.6812 265.497 28.8809 266.13 29.2802C266.762 29.6795 267.211 30.3451 267.477 31.2768C267.744 32.1753 267.877 33.4731 267.877 35.1702V52.1415H261.388V35.1702Z" fill="#151F4C"/>
<path d="M274.745 35.1702C274.745 33.4731 274.512 32.2252 274.046 31.4266C273.614 30.5947 272.699 30.1787 271.301 30.1787H270.802V28.6812H275.744C276.875 28.6812 277.757 28.831 278.389 29.1305C279.055 29.3967 279.57 29.8626 279.936 30.5281C281.634 28.9641 284.063 28.1821 287.224 28.1821C290.385 28.1821 292.748 28.9308 294.312 30.4283C295.909 31.8925 296.708 34.2052 296.708 37.3665V52.1415H290.219V37.3166C290.219 35.0205 289.786 33.34 288.921 32.2751C288.089 31.2103 286.941 30.6778 285.477 30.6778C284.446 30.6778 283.53 30.8276 282.732 31.1271C281.966 31.3933 281.351 31.7593 280.885 32.2252L281.035 32.924C281.168 33.3234 281.234 33.9723 281.234 34.8707V52.1415H274.745V35.1702Z" fill="#151F4C"/>
<defs>
<clipPath id="clip0_4_71">
<rect width="50.7804" height="50.7804" fill="white" transform="translate(0.5 25.7574) rotate(-30)"/>
</clipPath>
</defs>
</svg>
