<svg width="542" height="128" viewBox="0 0 542 128" fill="none" xmlns="http://www.w3.org/2000/svg">
<g clip-path="url(#clip0_38_1163)">
<path d="M27.0183 31.198L15.599 73.8153L49.2193 82.8238C52.534 83.712 55.2698 80.1311 53.5366 77.1291L27.0183 31.198Z" fill="#D85E00"/>
<path d="M69.6356 42.6173L15.599 73.8153C7.01956 58.9552 12.1582 39.7774 27.0183 31.198L67.5457 7.79947L81.0548 -3.57628e-05C89.6343 14.86 84.4956 34.0378 69.6356 42.6173Z" fill="#FFBA00"/>
<path d="M100.833 96.6538L112.253 54.0365L78.6325 45.028C75.3178 44.1399 72.582 47.7207 74.3152 50.7228L100.833 96.6538Z" fill="#2927A6"/>
<path d="M58.2163 85.2345L112.253 54.0365C120.832 68.8965 115.694 88.0743 100.834 96.6538L46.797 127.852C38.2176 112.992 43.3562 93.8139 58.2163 85.2345Z" fill="#0066FF"/>
</g>
<path d="M164.644 95.85C161.209 95.85 157.897 95.39 154.708 94.47C151.518 93.6113 148.912 92.354 146.888 90.698C144.864 88.9806 143.852 87.018 143.852 84.81V74.046H146.428C147.348 80.302 149.28 84.8099 152.224 87.57C155.168 90.33 159.277 91.71 164.552 91.71C168.109 91.71 170.93 90.9433 173.016 89.41C175.101 87.8766 176.144 85.6686 176.144 82.786C176.144 80.3326 175.377 78.2473 173.844 76.53C172.31 74.8126 169.918 72.942 166.668 70.918L155.352 64.11C151.242 61.718 148.298 59.234 146.52 56.658C144.802 54.0819 143.944 51.0766 143.944 47.642C143.944 42.7966 145.784 38.9633 149.464 36.142C153.205 33.3206 158.234 31.91 164.552 31.91C167.986 31.91 171.298 32.37 174.488 33.2899C177.677 34.1486 180.284 35.4366 182.308 37.1539C184.332 38.81 185.344 40.742 185.344 42.95V53.714H182.768C181.725 47.4579 179.793 42.95 176.972 40.19C174.15 37.43 170.348 36.05 165.564 36.05C162.252 36.05 159.614 36.8473 157.652 38.4419C155.75 40.0366 154.8 42.214 154.8 44.974C154.8 47.366 155.536 49.3593 157.008 50.954C158.541 52.4873 160.994 54.2353 164.368 56.1979L175.684 62.914C179.977 65.4286 183.044 67.882 184.884 70.274C186.785 72.6046 187.736 75.426 187.736 78.7379C187.736 84.074 185.712 88.2753 181.664 91.342C177.677 94.3473 172.004 95.85 164.644 95.85Z" fill="white"/>
<path d="M231.118 95.206C228.419 95.206 225.935 94.654 223.666 93.55C221.458 92.3846 219.373 90.4833 217.41 87.846L208.578 76.254V94.286H196.618V45.526C196.618 42.398 196.189 40.098 195.33 38.626C194.471 37.0926 192.754 36.3259 190.178 36.3259H189.258V33.566H200.298C202.506 33.566 204.193 33.934 205.358 34.67C206.523 35.406 207.351 36.6326 207.842 38.3499C208.333 40.0059 208.578 42.398 208.578 45.526V71.746L219.71 58.13C221.795 55.6153 223.758 53.806 225.598 52.702C227.438 51.5979 229.891 51.046 232.958 51.046H234.798V53.438C232.958 53.438 231.302 53.806 229.83 54.542C228.358 55.278 226.947 56.4433 225.598 58.038L216.674 68.894L228.91 85.086C231.854 89.0726 234.706 91.4033 237.466 92.078V94.286C236.975 94.5313 236.055 94.746 234.706 94.93C233.418 95.114 232.222 95.206 231.118 95.206Z" fill="white"/>
<path d="M250.795 46.0779C248.587 46.0779 246.87 45.4033 245.643 44.054C244.478 42.7046 243.895 41.0486 243.895 39.086C243.895 37.4913 244.355 36.2339 245.275 35.3139C246.257 34.394 247.483 33.934 248.955 33.934C251.163 33.934 252.85 34.6086 254.015 35.958C255.242 37.3073 255.855 38.9633 255.855 40.9259C255.855 42.5206 255.365 43.7779 254.383 44.6979C253.463 45.6179 252.267 46.0779 250.795 46.0779ZM244.815 63.006C244.815 59.878 244.386 57.578 243.527 56.106C242.669 54.5726 240.951 53.806 238.375 53.806H237.455V51.046H248.495C250.703 51.046 252.39 51.414 253.555 52.15C254.721 52.886 255.549 54.1126 256.039 55.83C256.53 57.486 256.775 59.878 256.775 63.006V94.286H244.815V63.006Z" fill="white"/>
<path d="M269.58 45.526C269.58 42.398 269.151 40.098 268.292 38.626C267.433 37.0926 265.716 36.3259 263.14 36.3259H262.22V33.566H273.26C275.468 33.566 277.155 33.934 278.32 34.67C279.485 35.406 280.313 36.6326 280.804 38.3499C281.295 40.0059 281.54 42.398 281.54 45.526V94.286H269.58V45.526Z" fill="white"/>
<path d="M293.299 45.526C293.299 42.398 292.869 40.098 292.011 38.626C291.152 37.0926 289.435 36.3259 286.859 36.3259H285.939V33.566H296.979C299.187 33.566 300.873 33.934 302.039 34.67C303.204 35.406 304.032 36.6326 304.523 38.3499C305.013 40.0059 305.259 42.398 305.259 45.526V94.286H293.299V45.526Z" fill="white"/>
<path d="M344.893 96.1259C338.576 96.1259 333.117 94.7766 328.517 92.078C323.979 89.318 320.513 85.5766 318.121 80.854C315.729 76.1313 314.533 70.7953 314.533 64.846C314.533 58.7126 315.852 53.1313 318.489 48.102C321.127 43.0113 324.745 39.0246 329.345 36.142C334.007 33.198 339.189 31.726 344.893 31.726C350.291 31.726 354.799 32.4313 358.417 33.842C362.036 35.1913 364.796 36.9699 366.697 39.1779C367.801 40.5886 368.476 42.3366 368.721 44.4219C368.967 46.5073 369.089 49.4206 369.089 53.162H366.329C365.164 47.5193 363.017 43.226 359.889 40.282C356.761 37.3379 352.683 35.8659 347.653 35.8659C341.397 35.8659 336.46 38.074 332.841 42.49C329.223 46.906 327.413 54.358 327.413 64.846C327.413 72.6353 329.069 79.106 332.381 84.258C335.693 89.41 340.784 91.986 347.653 91.986C351.947 91.986 355.872 90.8513 359.429 88.582C363.048 86.3126 365.961 83.062 368.169 78.83L371.389 81.314C368.445 86.466 364.888 90.238 360.717 92.63C356.547 94.9606 351.272 96.1259 344.893 96.1259Z" fill="white"/>
<path d="M379.091 45.526C379.091 42.398 378.661 40.098 377.803 38.626C376.944 37.0926 375.227 36.3259 372.651 36.3259H371.731V33.566H382.771C384.979 33.566 386.665 33.934 387.831 34.67C388.996 35.406 389.824 36.6326 390.315 38.3499C390.805 40.0059 391.051 42.398 391.051 45.526V53.622C391.603 53.1926 392.553 52.61 393.903 51.874C396.356 50.7086 398.779 50.1259 401.171 50.1259C406.139 50.1259 410.279 51.414 413.591 53.99C416.964 56.5046 418.651 60.8286 418.651 66.962V94.286H406.691V67.422C406.691 63.006 405.893 59.786 404.299 57.762C402.765 55.738 400.803 54.726 398.411 54.726C396.755 54.726 395.007 55.278 393.167 56.382C392.431 56.8113 391.725 57.3326 391.051 57.946V94.286H379.091V45.526Z" fill="white"/>
<path d="M441.922 95.206C436.954 95.206 433.09 94.102 430.33 91.894C427.631 89.6246 426.282 86.5886 426.282 82.786C426.282 79.7193 426.987 77.174 428.398 75.15C429.87 73.126 432.415 71.5926 436.034 70.55C439.652 69.5073 444.682 68.986 451.122 68.986H452.502C452.502 63.65 451.766 59.878 450.294 57.67C448.822 55.4006 446.644 54.2659 443.762 54.2659C441.37 54.2659 439.407 54.8486 437.874 56.014C436.34 57.1793 435.236 59.3566 434.562 62.546H429.502C429.502 60.4606 429.624 58.682 429.87 57.2099C430.176 55.738 430.82 54.45 431.802 53.346C433.703 51.1993 438.303 50.1259 445.602 50.1259C451.735 50.1259 456.396 51.7513 459.586 55.002C462.836 58.1913 464.462 63.006 464.462 69.446V94.286H456.642L453.422 90.146H452.962C452.41 91.0046 451.551 91.8633 450.386 92.722C448.3 94.378 445.479 95.206 441.922 95.206ZM444.682 90.606C445.97 90.606 447.074 90.3606 447.994 89.87C448.914 89.318 449.803 88.582 450.662 87.662C451.459 86.8033 452.072 85.7913 452.502 84.6259V73.126H451.122C446.767 73.126 443.608 73.9233 441.646 75.518C439.683 77.0513 438.702 79.474 438.702 82.786C438.702 85.3006 439.223 87.2326 440.266 88.582C441.308 89.9313 442.78 90.606 444.682 90.606Z" fill="white"/>
<path d="M482.502 46.0779C480.294 46.0779 478.577 45.4033 477.35 44.054C476.185 42.7046 475.602 41.0486 475.602 39.086C475.602 37.4913 476.062 36.2339 476.982 35.3139C477.964 34.394 479.19 33.934 480.662 33.934C482.87 33.934 484.557 34.6086 485.722 35.958C486.949 37.3073 487.562 38.9633 487.562 40.9259C487.562 42.5206 487.072 43.7779 486.09 44.6979C485.17 45.6179 483.974 46.0779 482.502 46.0779ZM476.522 63.006C476.522 59.878 476.093 57.578 475.234 56.106C474.376 54.5726 472.658 53.806 470.082 53.806H469.162V51.046H480.202C482.41 51.046 484.097 51.414 485.262 52.15C486.428 52.886 487.256 54.1126 487.746 55.83C488.237 57.486 488.482 59.878 488.482 63.006V94.286H476.522V63.006Z" fill="white"/>
<path d="M501.142 63.006C501.142 59.878 500.712 57.578 499.854 56.106C499.056 54.5726 497.37 53.806 494.794 53.806H493.874V51.046H502.982C505.067 51.046 506.692 51.322 507.858 51.874C509.084 52.3646 510.035 53.2233 510.71 54.45C513.838 51.5673 518.315 50.1259 524.142 50.1259C529.968 50.1259 534.323 51.5059 537.206 54.2659C540.15 56.9646 541.622 61.2273 541.622 67.054V94.286H529.662V66.962C529.662 62.73 528.864 59.6326 527.27 57.67C525.736 55.7073 523.62 54.726 520.922 54.726C519.02 54.726 517.334 55.002 515.862 55.554C514.451 56.0446 513.316 56.7193 512.458 57.578L512.734 58.866C512.979 59.602 513.102 60.798 513.102 62.454V94.286H501.142V63.006Z" fill="white"/>
<defs>
<clipPath id="clip0_38_1163">
<rect width="93.5941" height="93.5941" fill="white" transform="translate(0 46.797) rotate(-30)"/>
</clipPath>
</defs>
</svg>
