<svg width="113" height="19" viewBox="0 0 113 19" fill="none" xmlns="http://www.w3.org/2000/svg">
<path d="M6.53848 18.1754C5.57215 18.1754 4.64033 18.0459 3.74302 17.7868C2.84571 17.545 2.11234 17.191 1.54289 16.7247C0.973444 16.2412 0.688721 15.6885 0.688721 15.0668V12.0359H1.41347C1.67231 13.7975 2.21587 15.0668 3.04416 15.844C3.87244 16.6211 5.02859 17.0097 6.5126 17.0097C7.51344 17.0097 8.30721 16.7938 8.89392 16.3621C9.48062 15.9303 9.77397 15.3086 9.77397 14.4969C9.77397 13.8061 9.55827 13.2189 9.12687 12.7354C8.69547 12.2518 8.02249 11.7251 7.10793 11.1552L3.92421 9.23818C2.76806 8.56465 1.93978 7.86522 1.43935 7.13988C0.956188 6.41454 0.714605 5.56831 0.714605 4.60119C0.714605 3.23686 1.23228 2.15749 2.26764 1.36307C3.32025 0.568648 4.73524 0.171438 6.5126 0.171438C7.47893 0.171438 8.41075 0.300963 9.30806 0.560013C10.2054 0.801792 10.9387 1.16446 11.5082 1.64802C12.0776 2.11431 12.3624 2.65832 12.3624 3.28004V6.31092H11.6376C11.3443 4.54938 10.8007 3.28004 10.0069 2.50289C9.21315 1.72574 8.14328 1.33716 6.79732 1.33716C5.8655 1.33716 5.1235 1.56167 4.57131 2.01069C4.03637 2.45971 3.7689 3.0728 3.7689 3.84995C3.7689 4.52348 3.97598 5.08475 4.39012 5.53377C4.82152 5.96552 5.51175 6.45771 6.46083 7.01035L9.64455 8.90142C10.8525 9.60949 11.7153 10.3003 12.2329 10.9738C12.7679 11.6301 13.0353 12.4245 13.0353 13.3571C13.0353 14.8596 12.4659 16.0426 11.327 16.9061C10.2054 17.7523 8.60919 18.1754 6.53848 18.1754Z" fill="white"/>
<path d="M25.2408 17.9941C24.4816 17.9941 23.7827 17.8386 23.1442 17.5278C22.523 17.1996 21.9363 16.6643 21.3841 15.9217L18.8993 12.6576V17.735H15.5343V4.00538C15.5343 3.12461 15.4136 2.47698 15.172 2.0625C14.9304 1.63075 14.4472 1.41488 13.7225 1.41488H13.4636V0.637728H16.5697C17.1909 0.637728 17.6655 0.741348 17.9933 0.948588C18.3212 1.15583 18.5541 1.50123 18.6922 1.98479C18.8302 2.45108 18.8993 3.12461 18.8993 4.00538V11.3883L22.0312 7.55436C22.6179 6.84629 23.1701 6.33682 23.6878 6.02596C24.2055 5.7151 24.8957 5.55967 25.7585 5.55967H26.2762V6.2332C25.7585 6.2332 25.2926 6.33682 24.8784 6.54406C24.4643 6.7513 24.0674 7.07943 23.6878 7.52845L21.177 10.5852L24.6196 15.1445C25.4479 16.2671 26.2503 16.9233 27.0268 17.1133V17.735C26.8888 17.8041 26.6299 17.8645 26.2503 17.9164C25.8879 17.9682 25.5514 17.9941 25.2408 17.9941Z" fill="white"/>
<path d="M30.7769 4.16081C30.1557 4.16081 29.6726 3.97084 29.3274 3.5909C28.9996 3.21096 28.8356 2.74467 28.8356 2.19203C28.8356 1.74301 28.9651 1.38897 29.2239 1.12992C29.5 0.870873 29.8451 0.741348 30.2593 0.741348C30.8805 0.741348 31.355 0.931318 31.6829 1.31126C32.028 1.6912 32.2005 2.15749 32.2005 2.71013C32.2005 3.15915 32.0625 3.51318 31.7864 3.77223C31.5276 4.03128 31.1911 4.16081 30.7769 4.16081ZM29.0945 8.92732C29.0945 8.04655 28.9737 7.39893 28.7321 6.98445C28.4905 6.5527 28.0074 6.33682 27.2826 6.33682H27.0238V5.55967H30.1298C30.751 5.55967 31.2256 5.66329 31.5534 5.87053C31.8813 6.07777 32.1143 6.42317 32.2523 6.90673C32.3904 7.37302 32.4594 8.04655 32.4594 8.92732V17.735H29.0945V8.92732Z" fill="white"/>
<path d="M36.0619 4.00538C36.0619 3.12461 35.9411 2.47698 35.6995 2.0625C35.4579 1.63075 34.9748 1.41488 34.25 1.41488H33.9912V0.637728H37.0973C37.7185 0.637728 38.193 0.741348 38.5209 0.948588C38.8487 1.15583 39.0817 1.50123 39.2197 1.98479C39.3578 2.45108 39.4268 3.12461 39.4268 4.00538V17.735H36.0619V4.00538Z" fill="white"/>
<path d="M42.7351 4.00538C42.7351 3.12461 42.6143 2.47698 42.3727 2.0625C42.1311 1.63075 41.648 1.41488 40.9232 1.41488H40.6644V0.637728H43.7704C44.3917 0.637728 44.8662 0.741348 45.1941 0.948588C45.5219 1.15583 45.7549 1.50123 45.8929 1.98479C46.031 2.45108 46.1 3.12461 46.1 4.00538V17.735H42.7351V4.00538Z" fill="white"/>
<path d="M57.2511 18.2531C55.4737 18.2531 53.938 17.8732 52.6438 17.1133C51.3668 16.3361 50.3919 15.2827 49.7189 13.9529C49.0459 12.6231 48.7094 11.1206 48.7094 9.44542C48.7094 7.71842 49.0804 6.14685 49.8224 4.73071C50.5644 3.29731 51.5825 2.17476 52.8767 1.36307C54.1882 0.534108 55.6463 0.119629 57.2511 0.119629C58.7696 0.119629 60.0379 0.318234 61.056 0.715444C62.0741 1.09538 62.8507 1.59621 63.3856 2.21793C63.6962 2.61514 63.886 3.10734 63.955 3.69451C64.0241 4.2817 64.0586 5.10202 64.0586 6.15549H63.2821C62.9542 4.56665 62.3502 3.35775 61.4702 2.52879C60.5901 1.69983 59.4426 1.28535 58.0276 1.28535C56.2675 1.28535 54.8784 1.90707 53.8603 3.15051C52.8422 4.39395 52.3332 6.49225 52.3332 9.44542C52.3332 11.6387 52.7991 13.4607 53.7309 14.9114C54.6627 16.3621 56.095 17.0874 58.0276 17.0874C59.2355 17.0874 60.3399 16.7679 61.3408 16.1289C62.3589 15.4899 63.1785 14.5746 63.7997 13.383L64.7057 14.0824C63.8774 15.5331 62.8765 16.5952 61.7031 17.2687C60.5297 17.925 59.0457 18.2531 57.2511 18.2531Z" fill="white"/>
<path d="M66.8724 4.00538C66.8724 3.12461 66.7516 2.47698 66.5101 2.0625C66.2685 1.63075 65.7853 1.41488 65.0606 1.41488H64.8017V0.637728H67.9078C68.529 0.637728 69.0035 0.741348 69.3314 0.948588C69.6593 1.15583 69.8922 1.50123 70.0303 1.98479C70.1683 2.45108 70.2373 3.12461 70.2373 4.00538V6.28501C70.3926 6.16412 70.6601 6.00006 71.0397 5.79282C71.73 5.46469 72.4116 5.30063 73.0846 5.30063C74.4823 5.30063 75.6471 5.66329 76.5789 6.38863C77.528 7.0967 78.0025 8.31424 78.0025 10.0412V17.735H74.6376V10.1708C74.6376 8.92732 74.4133 8.02065 73.9646 7.45074C73.5332 6.88083 72.981 6.59587 72.3081 6.59587C71.8421 6.59587 71.3503 6.7513 70.8327 7.06216C70.6256 7.18305 70.4272 7.32985 70.2373 7.50255V17.735H66.8724V4.00538Z" fill="white"/>
<path d="M84.5497 17.9941C83.152 17.9941 82.0649 17.6832 81.2883 17.0615C80.5291 16.4225 80.1495 15.5676 80.1495 14.4969C80.1495 13.6334 80.3479 12.9167 80.7448 12.3468C81.1589 11.7769 81.875 11.3451 82.8932 11.0515C83.9112 10.7579 85.3262 10.6111 87.1381 10.6111H87.5264C87.5264 9.10866 87.3193 8.04655 86.9052 7.42483C86.491 6.78584 85.8784 6.46635 85.0674 6.46635C84.3944 6.46635 83.8422 6.63041 83.4108 6.95854C82.9794 7.28667 82.6688 7.89976 82.479 8.7978H81.0554C81.0554 8.21062 81.0899 7.70979 81.1589 7.29531C81.2452 6.88083 81.4264 6.51816 81.7025 6.2073C82.2374 5.60285 83.5316 5.30063 85.5851 5.30063C87.3107 5.30063 88.6221 5.75828 89.5194 6.67359C90.434 7.57163 90.8913 8.92732 90.8913 10.7407V17.735H88.6911L87.7852 16.5693H87.6558C87.5005 16.8111 87.2589 17.0529 86.931 17.2946C86.3443 17.7609 85.5506 17.9941 84.5497 17.9941ZM85.3262 16.6988C85.6886 16.6988 85.9992 16.6297 86.2581 16.4916C86.5169 16.3361 86.7671 16.1289 87.0087 15.8699C87.233 15.6281 87.4056 15.3431 87.5264 15.015V11.7769H87.1381C85.9129 11.7769 85.0243 12.0014 84.4721 12.4504C83.9199 12.8821 83.6438 13.5643 83.6438 14.4969C83.6438 15.205 83.7905 15.749 84.0838 16.1289C84.3772 16.5088 84.7913 16.6988 85.3262 16.6988Z" fill="white"/>
<path d="M95.9669 4.16081C95.3457 4.16081 94.8626 3.97084 94.5174 3.5909C94.1896 3.21096 94.0256 2.74467 94.0256 2.19203C94.0256 1.74301 94.1551 1.38897 94.4139 1.12992C94.69 0.870873 95.0351 0.741348 95.4493 0.741348C96.0705 0.741348 96.545 0.931318 96.8729 1.31126C97.218 1.6912 97.3906 2.15749 97.3906 2.71013C97.3906 3.15915 97.2525 3.51318 96.9764 3.77223C96.7176 4.03128 96.3811 4.16081 95.9669 4.16081ZM94.2845 8.92732C94.2845 8.04655 94.1637 7.39893 93.9221 6.98445C93.6805 6.5527 93.1974 6.33682 92.4726 6.33682H92.2138V5.55967H95.3198C95.9411 5.55967 96.4156 5.66329 96.7435 5.87053C97.0713 6.07777 97.3043 6.42317 97.4423 6.90673C97.5804 7.37302 97.6494 8.04655 97.6494 8.92732V17.735H94.2845V8.92732Z" fill="white"/>
<path d="M101.211 8.92732C101.211 8.04655 101.09 7.39893 100.849 6.98445C100.624 6.5527 100.15 6.33682 99.4251 6.33682H99.1662V5.55967H101.729C102.315 5.55967 102.773 5.63739 103.101 5.79282C103.446 5.93098 103.713 6.17276 103.903 6.51816C104.783 5.70647 106.043 5.30063 107.682 5.30063C109.321 5.30063 110.547 5.6892 111.358 6.46635C112.186 7.22623 112.6 8.42649 112.6 10.0671V17.735H109.235V10.0412C109.235 8.84961 109.011 7.97747 108.562 7.42483C108.131 6.87219 107.535 6.59587 106.776 6.59587C106.241 6.59587 105.767 6.67359 105.352 6.82902C104.956 6.96718 104.636 7.15715 104.395 7.39893L104.472 7.7616C104.541 7.96884 104.576 8.3056 104.576 8.77189V17.735H101.211V8.92732Z" fill="white"/>
</svg>
