<svg width="542" height="128" viewBox="0 0 542 128" fill="none" xmlns="http://www.w3.org/2000/svg">
<g clip-path="url(#clip0_38_1172)">
<path d="M27.0183 31.198L15.599 73.8153L49.2193 82.8238C52.534 83.712 55.2698 80.1311 53.5366 77.1291L27.0183 31.198Z" fill="#D85E00"/>
<path d="M69.6356 42.6173L15.599 73.8153C7.01956 58.9553 12.1582 39.7775 27.0183 31.198L67.5457 7.7995L81.0548 -5.24521e-06C89.6343 14.86 84.4956 34.0378 69.6356 42.6173Z" fill="#FFBA00"/>
<path d="M100.833 96.6538L112.253 54.0365L78.6325 45.028C75.3178 44.1399 72.582 47.7207 74.3152 50.7228L100.833 96.6538Z" fill="#2927A6"/>
<path d="M58.2163 85.2346L112.253 54.0366C120.832 68.8966 115.694 88.0744 100.834 96.6538L46.797 127.852C38.2176 112.992 43.3562 93.814 58.2163 85.2346Z" fill="#0066FF"/>
</g>
<path d="M164.644 95.8499C161.209 95.8499 157.897 95.3899 154.708 94.4699C151.518 93.6113 148.912 92.3539 146.888 90.6979C144.864 88.9806 143.852 87.0179 143.852 84.8099V74.0459H146.428C147.348 80.3019 149.28 84.8099 152.224 87.5699C155.168 90.3299 159.277 91.7099 164.552 91.7099C168.109 91.7099 170.93 90.9433 173.016 89.4099C175.101 87.8766 176.144 85.6686 176.144 82.7859C176.144 80.3326 175.377 78.2473 173.844 76.5299C172.31 74.8126 169.918 72.9419 166.668 70.9179L155.352 64.1099C151.242 61.7179 148.298 59.2339 146.52 56.6579C144.802 54.0819 143.944 51.0766 143.944 47.6419C143.944 42.7966 145.784 38.9633 149.464 36.1419C153.205 33.3206 158.234 31.9099 164.552 31.9099C167.986 31.9099 171.298 32.3699 174.488 33.2899C177.677 34.1486 180.284 35.4366 182.308 37.1539C184.332 38.8099 185.344 40.7419 185.344 42.9499V53.7139H182.768C181.725 47.4579 179.793 42.9499 176.972 40.1899C174.15 37.4299 170.348 36.0499 165.564 36.0499C162.252 36.0499 159.614 36.8473 157.652 38.4419C155.75 40.0366 154.8 42.2139 154.8 44.9739C154.8 47.3659 155.536 49.3593 157.008 50.9539C158.541 52.4873 160.994 54.2353 164.368 56.1979L175.684 62.9139C179.977 65.4286 183.044 67.8819 184.884 70.2739C186.785 72.6046 187.736 75.4259 187.736 78.7379C187.736 84.0739 185.712 88.2753 181.664 91.3419C177.677 94.3473 172.004 95.8499 164.644 95.8499Z" fill="#151F4C"/>
<path d="M231.118 95.2059C228.419 95.2059 225.935 94.6539 223.666 93.5499C221.458 92.3846 219.373 90.4833 217.41 87.8459L208.578 76.2539V94.2859H196.618V45.5259C196.618 42.3979 196.189 40.0979 195.33 38.6259C194.471 37.0926 192.754 36.3259 190.178 36.3259H189.258V33.5659H200.298C202.506 33.5659 204.193 33.9339 205.358 34.6699C206.523 35.4059 207.351 36.6326 207.842 38.3499C208.333 40.0059 208.578 42.3979 208.578 45.5259V71.7459L219.71 58.1299C221.795 55.6153 223.758 53.8059 225.598 52.7019C227.438 51.5979 229.891 51.0459 232.958 51.0459H234.798V53.4379C232.958 53.4379 231.302 53.8059 229.83 54.5419C228.358 55.2779 226.947 56.4433 225.598 58.0379L216.674 68.8939L228.91 85.0859C231.854 89.0726 234.706 91.4033 237.466 92.0779V94.2859C236.975 94.5313 236.055 94.7459 234.706 94.9299C233.418 95.1139 232.222 95.2059 231.118 95.2059Z" fill="#151F4C"/>
<path d="M250.795 46.0779C248.587 46.0779 246.87 45.4033 245.643 44.0539C244.478 42.7046 243.895 41.0486 243.895 39.0859C243.895 37.4913 244.355 36.2339 245.275 35.3139C246.257 34.3939 247.483 33.9339 248.955 33.9339C251.163 33.9339 252.85 34.6086 254.015 35.9579C255.242 37.3073 255.855 38.9633 255.855 40.9259C255.855 42.5206 255.365 43.7779 254.383 44.6979C253.463 45.6179 252.267 46.0779 250.795 46.0779ZM244.815 63.0059C244.815 59.8779 244.386 57.5779 243.527 56.1059C242.669 54.5726 240.951 53.8059 238.375 53.8059H237.455V51.0459H248.495C250.703 51.0459 252.39 51.4139 253.555 52.1499C254.721 52.8859 255.549 54.1126 256.039 55.8299C256.53 57.4859 256.775 59.8779 256.775 63.0059V94.2859H244.815V63.0059Z" fill="#151F4C"/>
<path d="M269.58 45.5259C269.58 42.3979 269.151 40.0979 268.292 38.6259C267.433 37.0926 265.716 36.3259 263.14 36.3259H262.22V33.5659H273.26C275.468 33.5659 277.155 33.9339 278.32 34.6699C279.485 35.4059 280.313 36.6326 280.804 38.3499C281.295 40.0059 281.54 42.3979 281.54 45.5259V94.2859H269.58V45.5259Z" fill="#151F4C"/>
<path d="M293.299 45.5259C293.299 42.3979 292.869 40.0979 292.011 38.6259C291.152 37.0926 289.435 36.3259 286.859 36.3259H285.939V33.5659H296.979C299.187 33.5659 300.873 33.9339 302.039 34.6699C303.204 35.4059 304.032 36.6326 304.523 38.3499C305.013 40.0059 305.259 42.3979 305.259 45.5259V94.2859H293.299V45.5259Z" fill="#151F4C"/>
<path d="M344.893 96.1259C338.576 96.1259 333.117 94.7766 328.517 92.0779C323.979 89.3179 320.513 85.5766 318.121 80.8539C315.729 76.1313 314.533 70.7953 314.533 64.8459C314.533 58.7126 315.852 53.1313 318.489 48.1019C321.127 43.0113 324.745 39.0246 329.345 36.1419C334.007 33.1979 339.189 31.7259 344.893 31.7259C350.291 31.7259 354.799 32.4313 358.417 33.8419C362.036 35.1913 364.796 36.9699 366.697 39.1779C367.801 40.5886 368.476 42.3366 368.721 44.4219C368.967 46.5073 369.089 49.4206 369.089 53.1619H366.329C365.164 47.5193 363.017 43.2259 359.889 40.2819C356.761 37.3379 352.683 35.8659 347.653 35.8659C341.397 35.8659 336.46 38.0739 332.841 42.4899C329.223 46.9059 327.413 54.3579 327.413 64.8459C327.413 72.6353 329.069 79.1059 332.381 84.2579C335.693 89.4099 340.784 91.9859 347.653 91.9859C351.947 91.9859 355.872 90.8513 359.429 88.5819C363.048 86.3126 365.961 83.0619 368.169 78.8299L371.389 81.3139C368.445 86.4659 364.888 90.2379 360.717 92.6299C356.547 94.9606 351.272 96.1259 344.893 96.1259Z" fill="#151F4C"/>
<path d="M379.091 45.5259C379.091 42.3979 378.661 40.0979 377.803 38.6259C376.944 37.0926 375.227 36.3259 372.651 36.3259H371.731V33.5659H382.771C384.979 33.5659 386.665 33.9339 387.831 34.6699C388.996 35.4059 389.824 36.6326 390.315 38.3499C390.805 40.0059 391.051 42.3979 391.051 45.5259V53.6219C391.603 53.1926 392.553 52.6099 393.903 51.8739C396.356 50.7086 398.779 50.1259 401.171 50.1259C406.139 50.1259 410.279 51.4139 413.591 53.9899C416.964 56.5046 418.651 60.8286 418.651 66.9619V94.2859H406.691V67.4219C406.691 63.0059 405.893 59.7859 404.299 57.7619C402.765 55.7379 400.803 54.7259 398.411 54.7259C396.755 54.7259 395.007 55.2779 393.167 56.3819C392.431 56.8113 391.725 57.3326 391.051 57.9459V94.2859H379.091V45.5259Z" fill="#151F4C"/>
<path d="M441.922 95.2059C436.954 95.2059 433.09 94.1019 430.33 91.8939C427.631 89.6246 426.282 86.5886 426.282 82.7859C426.282 79.7193 426.987 77.1739 428.398 75.1499C429.87 73.1259 432.415 71.5926 436.034 70.5499C439.652 69.5073 444.682 68.9859 451.122 68.9859H452.502C452.502 63.6499 451.766 59.8779 450.294 57.6699C448.822 55.4006 446.644 54.2659 443.762 54.2659C441.37 54.2659 439.407 54.8486 437.874 56.0139C436.34 57.1793 435.236 59.3566 434.562 62.5459H429.502C429.502 60.4606 429.624 58.6819 429.87 57.2099C430.176 55.7379 430.82 54.4499 431.802 53.3459C433.703 51.1993 438.303 50.1259 445.602 50.1259C451.735 50.1259 456.396 51.7513 459.586 55.0019C462.836 58.1913 464.462 63.0059 464.462 69.4459V94.2859H456.642L453.422 90.1459H452.962C452.41 91.0046 451.551 91.8633 450.386 92.7219C448.3 94.3779 445.479 95.2059 441.922 95.2059ZM444.682 90.6059C445.97 90.6059 447.074 90.3606 447.994 89.8699C448.914 89.3179 449.803 88.5819 450.662 87.6619C451.459 86.8033 452.072 85.7913 452.502 84.6259V73.1259H451.122C446.767 73.1259 443.608 73.9233 441.646 75.5179C439.683 77.0513 438.702 79.4739 438.702 82.7859C438.702 85.3006 439.223 87.2326 440.266 88.5819C441.308 89.9313 442.78 90.6059 444.682 90.6059Z" fill="#151F4C"/>
<path d="M482.502 46.0779C480.294 46.0779 478.577 45.4033 477.35 44.0539C476.185 42.7046 475.602 41.0486 475.602 39.0859C475.602 37.4913 476.062 36.2339 476.982 35.3139C477.964 34.3939 479.19 33.9339 480.662 33.9339C482.87 33.9339 484.557 34.6086 485.722 35.9579C486.949 37.3073 487.562 38.9633 487.562 40.9259C487.562 42.5206 487.072 43.7779 486.09 44.6979C485.17 45.6179 483.974 46.0779 482.502 46.0779ZM476.522 63.0059C476.522 59.8779 476.093 57.5779 475.234 56.1059C474.376 54.5726 472.658 53.8059 470.082 53.8059H469.162V51.0459H480.202C482.41 51.0459 484.097 51.4139 485.262 52.1499C486.428 52.8859 487.256 54.1126 487.746 55.8299C488.237 57.4859 488.482 59.8779 488.482 63.0059V94.2859H476.522V63.0059Z" fill="#151F4C"/>
<path d="M501.142 63.0059C501.142 59.8779 500.712 57.5779 499.854 56.1059C499.056 54.5726 497.37 53.8059 494.794 53.8059H493.874V51.0459H502.982C505.067 51.0459 506.692 51.3219 507.858 51.8739C509.084 52.3646 510.035 53.2233 510.71 54.4499C513.838 51.5673 518.315 50.1259 524.142 50.1259C529.968 50.1259 534.323 51.5059 537.206 54.2659C540.15 56.9646 541.622 61.2273 541.622 67.0539V94.2859H529.662V66.9619C529.662 62.7299 528.864 59.6326 527.27 57.6699C525.736 55.7073 523.62 54.7259 520.922 54.7259C519.02 54.7259 517.334 55.0019 515.862 55.5539C514.451 56.0446 513.316 56.7193 512.458 57.5779L512.734 58.8659C512.979 59.6019 513.102 60.7979 513.102 62.4539V94.2859H501.142V63.0059Z" fill="#151F4C"/>
<defs>
<clipPath id="clip0_38_1172">
<rect width="93.5941" height="93.5941" fill="white" transform="translate(0 46.797) rotate(-30)"/>
</clipPath>
</defs>
</svg>
