<svg width="75" height="20" viewBox="0 0 75 20" fill="none" xmlns="http://www.w3.org/2000/svg">
<path d="M0.967773 19.979V0.209641H9.55374C10.7953 0.209641 11.9107 0.482177 12.8997 1.04822C13.8888 1.61425 14.6674 2.38993 15.2356 3.3543C15.8038 4.31866 16.0774 5.42977 16.0774 6.66666C16.0774 7.92453 15.8038 9.07757 15.2356 10.0839C14.6674 11.1111 13.8888 11.9078 12.8997 12.4948C11.9107 13.0818 10.7953 13.3753 9.55374 13.3753H5.8079V19.979H0.967773ZM5.76581 9.09853H8.92242C9.3433 9.09853 9.72209 8.99371 10.0378 8.80503C10.3745 8.61635 10.648 8.32285 10.8374 7.96645C11.0479 7.61006 11.1531 7.21174 11.1531 6.75052C11.1531 6.28931 11.0479 5.87002 10.8374 5.53459C10.627 5.19916 10.3534 4.92662 10.0378 4.73794C9.70105 4.54926 9.3433 4.46541 8.92242 4.46541H5.76581V9.09853Z" fill="white"/>
<path d="M30.1626 12.369C30.2679 12.327 30.3731 12.2641 30.4783 12.2013C31.5095 11.6352 32.3091 10.8386 32.8984 9.87421C33.4876 8.88889 33.7822 7.77778 33.7822 6.54088C33.7822 5.32494 33.4876 4.2348 32.8984 3.27044C32.3091 2.32704 31.4884 1.57232 30.4783 1.02725C29.4682 0.482177 28.3108 0.209641 27.0271 0.209641H18.0202V19.979H22.6499V13.0608H25.1542L29.0473 19.979L34.5819 20L30.1626 12.369ZM22.6499 4.25576H26.1643C26.7535 4.25576 27.2586 4.36058 27.6794 4.57023C28.1003 4.77987 28.437 5.09434 28.6685 5.45073C28.9 5.82809 29.0263 6.26834 29.0263 6.77149C29.0263 7.25367 28.921 7.69392 28.7317 8.07128C28.5423 8.44864 28.2476 8.74214 27.8899 8.95178C27.5111 9.16142 27.0902 9.26624 26.6062 9.26624H22.671V4.25576H22.6499Z" fill="white"/>
<path d="M55.8441 11.4303C55.8441 12.6776 55.6178 13.8227 55.1652 14.8655C54.7125 15.9084 54.0747 16.8081 53.2517 17.5442C52.4288 18.3008 51.4618 18.8733 50.3508 19.3027C49.2397 19.7117 48.0464 19.9161 46.7502 19.9161C45.2072 19.9161 43.7875 19.6708 42.5531 19.18C41.298 18.6893 40.2281 17.9941 39.3229 17.0944C38.4176 16.1946 37.7181 15.1314 37.2449 13.9249C36.7716 12.7185 36.5247 11.3894 36.5247 9.95807C36.5247 8.52673 36.7716 7.19762 37.3066 5.9912C37.8209 4.78478 38.541 3.7215 39.4875 2.82179C40.4133 1.92209 41.5243 1.22687 42.8205 0.73612C44.0961 0.245373 45.5158 0 47.0383 0C48.0876 0 49.0957 0.143135 50.0421 0.408956C50.9886 0.674777 51.8733 1.06328 52.6551 1.53358C53.4369 2.00388 54.0953 2.55597 54.6097 3.16941L51.7087 6.19568C51.0503 5.58225 50.3302 5.07105 49.5689 4.72344C48.8077 4.35538 47.9435 4.1918 46.9766 4.1918C46.1741 4.1918 45.454 4.33493 44.7751 4.6212C44.0961 4.90747 43.4995 5.31642 43.0057 5.82762C42.4913 6.35926 42.1004 6.9727 41.8329 7.66792C41.5449 8.38359 41.4215 9.14016 41.4215 9.97852C41.4215 10.7964 41.5655 11.5734 41.8741 12.2687C42.1621 12.9639 42.5736 13.5773 43.1086 14.109C43.6435 14.6406 44.2402 15.0496 44.9603 15.3358C45.6598 15.6221 46.421 15.7857 47.2234 15.7857C47.7995 15.7857 48.3345 15.7039 48.8282 15.5199C49.322 15.3358 49.7541 15.1109 50.1244 14.8042C50.4948 14.4975 50.8034 14.1499 51.0091 13.7409C51.1943 13.3933 51.2972 13.0252 51.3178 12.6163H46.6474V8.83344H55.7618C55.803 9.03792 55.8235 9.30374 55.8441 9.65136C55.8647 9.99897 55.8853 10.3466 55.8853 10.6533C55.8441 10.9805 55.8441 11.2463 55.8441 11.4303Z" fill="white"/>
<path d="M75 0.209641V19.979H70.1599V12.3061H62.6682V19.979H57.8281V0.209641H62.6682V7.94549H70.1599V0.209641H75Z" fill="white"/>
</svg>
