<svg width="25" height="24" viewBox="0 0 25 24" fill="none" xmlns="http://www.w3.org/2000/svg">
<g clip-path="url(#clip0_20_1526)">
<path d="M6.26399 8.00004L5.96899 7.27004C5.91978 7.14824 5.89505 7.01794 5.8962 6.88658C5.89736 6.75522 5.92439 6.62538 5.97574 6.50447C6.0271 6.38356 6.10177 6.27395 6.1955 6.18191C6.28923 6.08986 6.40017 6.01719 6.52199 5.96804L15.794 2.22204C16.0397 2.1229 16.3148 2.12535 16.5587 2.22885C16.8026 2.33235 16.9955 2.52843 17.095 2.77404L22.715 16.682C22.7642 16.8038 22.7889 16.9341 22.7878 17.0655C22.7866 17.1969 22.7596 17.3267 22.7082 17.4476C22.6569 17.5685 22.5822 17.6781 22.4885 17.7702C22.3948 17.8622 22.2838 17.9349 22.162 17.984L12.89 21.73C12.7682 21.7793 12.6379 21.804 12.5065 21.8028C12.3752 21.8017 12.2453 21.7746 12.1244 21.7233C12.0035 21.6719 11.8939 21.5973 11.8019 21.5035C11.7098 21.4098 11.6371 21.2989 11.588 21.177L11.5 20.96V21H7.49999C7.23478 21 6.98042 20.8947 6.79289 20.7071C6.60535 20.5196 6.49999 20.2653 6.49999 20V19.73L3.14999 18.377C2.90414 18.2776 2.70787 18.0845 2.60435 17.8404C2.50083 17.5962 2.49854 17.3209 2.59799 17.075L6.26399 8.00004ZM8.49999 19H10.709L8.49999 13.533V19ZM6.49999 12.756L4.82699 16.897L6.49999 17.608V12.756ZM8.19799 7.44704L13.068 19.501L20.486 16.504L15.616 4.45104L8.19799 7.44704ZM11.176 9.48004C10.93 9.57936 10.6546 9.5769 10.4105 9.47319C10.1663 9.36948 9.97332 9.17303 9.87399 8.92704C9.77467 8.68105 9.77713 8.40568 9.88084 8.16151C9.98455 7.91734 10.181 7.72436 10.427 7.62504C10.673 7.52558 10.9484 7.52792 11.1927 7.63153C11.4369 7.73514 11.63 7.93155 11.7295 8.17754C11.8289 8.42353 11.8266 8.69895 11.723 8.94321C11.6194 9.18748 11.423 9.38058 11.177 9.48004H11.176Z" fill="#151F4C"/>
</g>
<defs>
<clipPath id="clip0_20_1526">
<rect width="24" height="24" fill="white" transform="translate(0.5)"/>
</clipPath>
</defs>
</svg>
