<svg width="25" height="24" viewBox="0 0 25 24" fill="none" xmlns="http://www.w3.org/2000/svg">
<g clip-path="url(#clip0_20_1534)">
<path d="M20.583 15.1999L21.785 15.9209C21.8591 15.9653 21.9205 16.0282 21.9631 16.1034C22.0058 16.1786 22.0282 16.2635 22.0282 16.3499C22.0282 16.4364 22.0058 16.5213 21.9631 16.5965C21.9205 16.6717 21.8591 16.7346 21.785 16.7789L13.015 22.0409C12.8594 22.1344 12.6814 22.1838 12.5 22.1838C12.3185 22.1838 12.1405 22.1344 11.985 22.0409L3.21498 16.7789C3.14082 16.7346 3.07944 16.6717 3.03682 16.5965C2.9942 16.5213 2.9718 16.4364 2.9718 16.3499C2.9718 16.2635 2.9942 16.1786 3.03682 16.1034C3.07944 16.0282 3.14082 15.9653 3.21498 15.9209L4.41698 15.1999L12.5 20.0499L20.583 15.1999ZM20.583 10.4999L21.785 11.2209C21.8591 11.2653 21.9205 11.3282 21.9631 11.4034C22.0058 11.4786 22.0282 11.5635 22.0282 11.6499C22.0282 11.7364 22.0058 11.8213 21.9631 11.8965C21.9205 11.9717 21.8591 12.0346 21.785 12.0789L12.5 17.6499L3.21498 12.0789C3.14082 12.0346 3.07944 11.9717 3.03682 11.8965C2.9942 11.8213 2.9718 11.7364 2.9718 11.6499C2.9718 11.5635 2.9942 11.4786 3.03682 11.4034C3.07944 11.3282 3.14082 11.2653 3.21498 11.2209L4.41698 10.4999L12.5 15.3499L20.583 10.4999ZM13.014 1.30895L21.785 6.57095C21.8591 6.61534 21.9205 6.6782 21.9631 6.75338C22.0058 6.82857 22.0282 6.91352 22.0282 6.99995C22.0282 7.08637 22.0058 7.17132 21.9631 7.24651C21.9205 7.3217 21.8591 7.38455 21.785 7.42895L12.5 12.9999L3.21498 7.42895C3.14082 7.38455 3.07944 7.3217 3.03682 7.24651C2.9942 7.17132 2.9718 7.08637 2.9718 6.99995C2.9718 6.91352 2.9942 6.82857 3.03682 6.75338C3.07944 6.6782 3.14082 6.61534 3.21498 6.57095L11.985 1.30895C12.1405 1.2155 12.3185 1.16614 12.5 1.16614C12.6814 1.16614 12.8594 1.2155 13.015 1.30895H13.014ZM12.5 3.33195L6.38698 6.99995L12.5 10.6679L18.613 6.99995L12.5 3.33195Z" fill="#151F4C"/>
</g>
<defs>
<clipPath id="clip0_20_1534">
<rect width="24" height="24" fill="white" transform="translate(0.5)"/>
</clipPath>
</defs>
</svg>
